<?xml version="1.0" encoding="utf-8"?>
<!-- Generator: Adobe Illustrator 26.0.3, SVG Export Plug-In . SVG Version: 6.00 Build 0)  -->
<svg version="1.1" id="Layer_1" xmlns="http://www.w3.org/2000/svg" xmlns:xlink="http://www.w3.org/1999/xlink" x="0px" y="0px"
	 viewBox="0 0 162.2 28.9" style="enable-background:new 0 0 162.2 28.9;" xml:space="preserve">
<style type="text/css">
	.st0{fill:#41BC3F;}
	.st1{clip-path:url(#SVGID_00000111904640203423587890000015375089866689399710_);}
	.st2{fill:#D86411;}
	.st3{clip-path:url(#SVGID_00000029738923406707898550000008017689488002117525_);}
	.st4{fill:none;}
</style>
<g id="Layer_2_00000088124596260735792060000008609447051832070577_">
	<g id="Layer_1-2">
		<path class="st0" d="M39.3,24.2l4.4-12.5h-4.1l-2.5,8.4H37l-2.5-8.4h-4.3l4.4,12.5H39.3z M49.6,24.2V11.8h-4v12.5H49.6z
			 M57.9,11.8h-5.4v12.5h5.4c1,0,1.9-0.1,2.8-0.4l0,0c0.8-0.2,1.5-0.6,2.1-1.1l0,0c0.6-0.5,1-1.2,1.3-1.9l0,0
			c0.3-0.9,0.4-1.8,0.4-2.8l0,0c0-0.9-0.1-1.9-0.4-2.8l0,0c-0.3-0.7-0.7-1.4-1.3-1.9l0,0c-0.6-0.5-1.3-0.9-2.1-1.1l0,0
			C59.8,11.9,58.8,11.7,57.9,11.8L57.9,11.8z M56.5,14.8h1.3c0.4,0,0.8,0.1,1.1,0.2l0,0c0.3,0.1,0.6,0.3,0.8,0.5l0,0
			c0.2,0.2,0.4,0.5,0.5,0.8l0,0c0.1,0.4,0.2,0.8,0.1,1.1l0,0v1.1l0,0c0,0.4,0,0.8-0.1,1.1l0,0c-0.1,0.3-0.2,0.6-0.5,0.8l0,0
			c-0.2,0.2-0.5,0.4-0.8,0.5l0,0c-0.4,0.1-0.7,0.2-1.1,0.2h-1.3V14.8z M79.2,24.2l-4.6-12.5H70l-4.6,12.5h4.1l0.5-1.8h4.4l0.5,1.8
			L79.2,24.2z M72.2,15.2L72.2,15.2l1.4,4.4h-2.7L72.2,15.2z M92.6,15.6L92.6,15.6c0-0.5-0.1-1-0.3-1.5l0,0
			c-0.2-0.5-0.4-0.9-0.8-1.2l0,0c-0.4-0.4-0.8-0.7-1.3-0.8l0,0c-0.6-0.2-1.2-0.3-1.8-0.3h-7.6v12.5h4v-4.6h1.5l2.2,4.6H93L90.2,19
			l0,0c0.4-0.1,0.7-0.3,1.1-0.6l0,0c0.3-0.2,0.5-0.5,0.8-0.8l0,0c0.2-0.3,0.4-0.6,0.5-1l0,0C92.5,16.3,92.6,15.9,92.6,15.6z
			 M88.5,15.8L88.5,15.8c0,0.2,0,0.3-0.1,0.5l0,0c-0.1,0.1-0.1,0.3-0.2,0.4l0,0c-0.1,0.1-0.2,0.2-0.4,0.2l0,0
			c-0.1,0.1-0.3,0.1-0.4,0.1h-2.6v-2.3h2.6c0.1,0,0.3,0,0.4,0.1l0,0c0.1,0.1,0.3,0.1,0.4,0.2l0,0c0.1,0.1,0.2,0.2,0.2,0.4l0,0
			C88.5,15.4,88.5,15.6,88.5,15.8z M99.1,24.2V11.8h-4v12.5H99.1z"/>
		<g>
			<defs>
				<polygon id="SVGID_1_" points="24.1,10.4 36.9,21.4 51.5,4.5 				"/>
			</defs>
			<clipPath id="SVGID_00000053514199339959321280000016035996258440259493_">
				<use xlink:href="#SVGID_1_"  style="overflow:visible;"/>
			</clipPath>
			<g style="clip-path:url(#SVGID_00000053514199339959321280000016035996258440259493_);">
				<polygon class="st2" points="24.3,10.5 36.8,21.1 51.3,4.7 				"/>
			</g>
		</g>
		<g>
			<defs>
				<polygon id="SVGID_00000122699962460244066350000013384820124079661479_" points="24.1,10.4 36.9,21.4 51.5,4.5 				"/>
			</defs>
			<clipPath id="SVGID_00000057147695880240640460000003943472467147578533_">
				<use xlink:href="#SVGID_00000122699962460244066350000013384820124079661479_"  style="overflow:visible;"/>
			</clipPath>
			<g style="clip-path:url(#SVGID_00000057147695880240640460000003943472467147578533_);">
				<polygon class="st4" points="24.1,10.4 36.9,21.4 51.5,4.5 				"/>
			</g>
		</g>
		<path class="st0" d="M122.1,8.9l1.2-3.3h-1.1l-0.7,2.2h0l-0.7-2.2h-1.1l1.2,3.3H122.1z M124.8,8.9V5.6h-1.1v3.3H124.8z M127,5.6
			h-1.4v3.3h1.4c0.3,0,0.5,0,0.7-0.1l0,0c0.2-0.1,0.4-0.2,0.5-0.3l0,0c0.1-0.1,0.3-0.3,0.3-0.5l0,0c0.1-0.2,0.1-0.5,0.1-0.7l0,0
			c0-0.2,0-0.5-0.1-0.7l0,0c-0.1-0.2-0.2-0.4-0.3-0.5l0,0c-0.2-0.1-0.3-0.2-0.5-0.3l0,0C127.5,5.6,127.2,5.6,127,5.6L127,5.6z
			 M126.6,6.4h0.4c0.1,0,0.2,0,0.3,0l0,0c0.1,0,0.2,0.1,0.2,0.1l0,0c0.1,0.1,0.1,0.1,0.1,0.2l0,0c0,0.1,0,0.2,0,0.3l0,0v0.3l0,0
			c0,0.1,0,0.2,0,0.3l0,0c0,0.1-0.1,0.2-0.1,0.2l0,0C127.4,8,127.3,8,127.3,8l0,0c-0.1,0-0.2,0-0.3,0h-0.4V6.4z M132.6,8.9l-1.2-3.3
			h-1.2L129,8.9h1.1l0.1-0.5h1.2l0.1,0.5H132.6z M130.8,6.5L130.8,6.5l0.4,1.2h-0.7L130.8,6.5z M136.1,6.6L136.1,6.6
			c0-0.1,0-0.3-0.1-0.4l0,0c0-0.1-0.1-0.2-0.2-0.3l0,0c-0.1-0.1-0.2-0.2-0.3-0.2l0,0c-0.2-0.1-0.3-0.1-0.5-0.1h-2v3.3h1.1V7.7h0.4
			l0.6,1.2h1.2l-0.7-1.4l0,0c0.1,0,0.2-0.1,0.3-0.2l0,0c0.1-0.1,0.1-0.1,0.2-0.2l0,0c0.1-0.1,0.1-0.2,0.1-0.2l0,0
			C136.1,6.8,136.1,6.7,136.1,6.6z M135,6.6L135,6.6c0,0,0,0.1,0,0.1l0,0c0,0,0,0.1-0.1,0.1l0,0c0,0-0.1,0-0.1,0.1l0,0
			c0,0-0.1,0-0.1,0H134V6.3h0.7c0,0,0.1,0,0.1,0l0,0c0,0,0.1,0,0.1,0.1l0,0c0,0,0.1,0.1,0.1,0.1l0,0C135,6.6,135,6.6,135,6.6z
			 M137.8,8.9V5.6h-1.1v3.3L137.8,8.9z"/>
		<path class="st0" d="M137.8,9h-16.9c-0.1,0-0.2,0.1-0.2,0.2c0,0.1,0.1,0.2,0.2,0.2h16.9c0.1,0,0.2-0.1,0.2-0.2
			C137.9,9.1,137.9,9,137.8,9z"/>
		<path class="st2" d="M105.2,11.8h-7v12.5h4v-4h3c0.6,0,1.1-0.1,1.6-0.3l0,0c0.5-0.2,0.9-0.5,1.3-0.9l0,0c0.4-0.4,0.6-0.8,0.8-1.3
			l0,0c0.2-0.5,0.3-1.1,0.3-1.6l0,0V16l0,0c0-0.6-0.1-1.1-0.3-1.6l0,0c-0.2-0.5-0.5-0.9-0.8-1.3l0,0c-0.4-0.4-0.8-0.7-1.3-0.9l0,0
			C106.3,11.9,105.8,11.8,105.2,11.8L105.2,11.8z M102.2,14.8h1.7c0.4,0,0.7,0.1,1,0.3l0,0c0.2,0.2,0.3,0.6,0.3,0.9l0,0v0.1l0,0
			c0,0.3-0.1,0.6-0.3,0.9l0,0c-0.3,0.2-0.6,0.4-1,0.3h-1.7L102.2,14.8z M123.9,24.3l-4.6-12.5h-4.7l-4.6,12.5h4.1l0.5-1.8h4.4
			l0.5,1.8L123.9,24.3z M116.9,15.3L116.9,15.3l1.4,4.4h-2.7L116.9,15.3z M133.2,19.5l4.9-7.6h-4.4l-2.4,4.2h-0.1l-2.4-4.2h-4.6
			l5,7.6v4.9h4L133.2,19.5z"/>
	</g>
</g>
</svg>
